<svg width="214" height="32" viewBox="0 0 214 32" fill="none" xmlns="http://www.w3.org/2000/svg">
<g clip-path="url(#clip0_708_239)">
<path d="M1.90228 13.7708C2.21833 16.4798 4.27265 18.5679 7.18482 18.5679C9.11497 18.5679 10.5598 17.5408 11.4628 16.1186L12.7608 16.7281C11.6321 18.6244 9.70192 19.9563 7.18482 19.9563C3.20034 19.9563 0.344604 16.8635 0.344604 13.0484C0.344604 9.2332 3.0536 6.10657 7.0155 6.10657C10.9774 6.10657 13.1672 9.19934 13.1672 13.0484C13.1672 13.2741 13.1672 13.5224 13.1333 13.7708H1.90228ZM11.6885 12.326C11.4628 9.5944 9.89381 7.50621 7.0155 7.50621C4.1372 7.50621 2.19575 9.5944 1.90228 12.326H11.6885Z" fill="#666560"/>
<path d="M25.4931 19.7644L21.2829 14.0755L17.0726 19.7644H15.2215L20.3573 12.8564L15.5375 6.33228H17.3887L21.2829 11.6035L25.2109 6.33228H27.0621L22.2084 12.8564L27.3442 19.7644H25.4931Z" fill="#666560"/>
<path d="M40.9908 10.7344V19.7644H39.4896V17.6424C38.3044 18.9856 36.521 19.9563 34.2973 19.9563C31.4416 19.9563 29.6808 18.4551 29.6808 16.2201C29.6808 13.7369 31.498 12.6533 34.9633 12.1792C38.7785 11.6261 39.5009 11.5358 39.5009 10.3958C39.5009 8.83814 38.1464 7.52879 35.7421 7.52879C32.8864 7.52879 31.9044 9.08646 31.7238 10.1813L30.2564 9.84272C30.6063 8.13831 32.1866 6.10657 35.7421 6.10657C38.6543 6.10657 41.0021 7.44978 41.0021 10.7344H40.9908ZM39.4896 12.8791C38.6769 13.0484 36.6564 13.3757 34.873 13.6353C32.3559 13.9739 31.182 14.7189 31.182 16.3104C31.182 17.6762 32.3333 18.5115 34.3876 18.5115C36.7806 18.5115 39.5009 16.841 39.5009 13.9965V12.8791H39.4896Z" fill="#666560"/>
<path d="M52.4815 18.9065C51.2398 19.9675 49.479 20.1933 48.3841 19.7756C47.2328 19.358 46.3298 18.3308 46.3298 15.8476V7.78834H44.1965V6.34354H46.3298V2.91215L47.831 2.51709V6.33226H51.0028V7.77705H47.831V15.8928C47.831 17.8116 48.5196 18.2293 49.0162 18.3986C49.7386 18.6808 50.9238 18.3986 51.6462 17.789L52.4815 18.9065Z" fill="#666560"/>
<path d="M65.8233 6.33221V19.7643H64.322V17.7551C63.3739 19.1435 61.9855 19.9562 60.1344 19.9562C56.2966 19.9562 54.6825 17.3601 54.6825 13.5449V6.32092H56.1838V13.5449C56.1838 17.0892 57.7753 18.5114 60.1344 18.5114C62.4935 18.5114 64.322 17.123 64.322 13.8271V6.33221H65.8233Z" fill="#666560"/>
<path d="M78.612 8.92838L77.2236 9.5379C76.9301 8.34143 75.7562 7.56259 73.9051 7.56259C71.9411 7.56259 70.7559 8.43173 70.8462 10.012C70.9365 11.1859 72.1217 11.6599 74.3679 12.1905C76.648 12.721 79.1876 13.3869 79.1876 16.1524C79.1876 18.7485 76.8173 20.0014 74.3114 20.0014C71.1058 20.0014 69.582 18.5227 69.0289 16.9086L70.4173 16.2991C70.7898 17.7213 72.1442 18.5566 74.3114 18.5566C75.9255 18.5566 77.6864 17.8906 77.6864 16.1637C77.6864 14.6624 76.4786 14.2109 73.9954 13.624C71.0832 12.9016 69.4578 12.0889 69.345 10.0233C69.2321 7.73191 70.88 6.1178 73.939 6.1178C76.3883 6.1178 78.0702 7.23526 78.612 8.92838Z" fill="#666560"/>
<path d="M101.875 6.15161V19.7643H99.2003V11.1858L95.7576 16.5587H94.1661L90.7234 11.1858V19.7643H88.0483V6.15161H90.5428L94.9562 13.037L99.4035 6.15161H101.875Z" fill="#666560"/>
<path d="M114.111 16.6941H109.336L108.253 19.7643H105.217L110.375 6.15161H113.118L118.276 19.7643H115.24L114.134 16.6941H114.111ZM113.219 14.2222L111.729 10.0458L110.239 14.2222H113.219Z" fill="#666560"/>
<path d="M126.211 15.1026H124.259V19.7756H121.583V6.15161H126.798C129.936 6.15161 131.697 8.13821 131.697 10.6215C131.697 12.45 130.771 14.0077 129.022 14.7075L132.047 19.7643H129.022L126.223 15.0913L126.211 15.1026ZM124.259 12.6306H126.73C128.062 12.6306 128.909 11.7954 128.909 10.6327C128.909 9.47013 128.062 8.64614 126.73 8.64614H124.259V12.6306Z" fill="#666560"/>
<path d="M138.142 6.15161V19.7643H135.467V6.15161H138.142Z" fill="#666560"/>
<path d="M153.346 6.15161V19.7643H150.705L145.05 10.9375V19.7643H142.375V6.15161H144.994L150.671 14.9784V6.15161H153.346Z" fill="#666560"/>
<path d="M166.936 17.3036V19.7756H157.568V6.15161H166.812V8.64614H160.243V11.7389H166.18V14.2109H160.243V17.3036H166.925H166.936Z" fill="#666560"/>
<path d="M84.9781 13.0822C84.9781 13.8385 84.3347 14.448 83.5446 14.448C82.7545 14.448 82.1337 13.8498 82.1337 13.0822C82.1337 12.3147 82.7771 11.7164 83.5446 11.7164C84.3121 11.7164 84.9781 12.3147 84.9781 13.0822Z" fill="#666560"/>
<path d="M176.305 9.86529H183.969C186.667 9.86529 188.857 11.9986 188.857 14.6173V15.9831H176.305V9.854V9.86529Z" fill="#F4AF9F"/>
<path d="M206.364 15.9944H188.857C188.857 19.3806 191.667 22.1235 195.144 22.1235H210.224C209.118 19.9676 207.831 17.9133 206.364 15.9944Z" fill="#F4AF9F"/>
<path d="M211.917 25.8708H193.044C193.044 29.2571 195.855 32 199.332 32H213.644C213.226 29.8892 212.651 27.8462 211.917 25.8708Z" fill="#30B6A9"/>
<path d="M176.305 19.7418H188.157C190.855 19.7418 193.044 21.8751 193.044 24.4938V25.8596H176.305V19.7305V19.7418Z" fill="#30B6A9"/>
<path d="M184.68 6.12915C184.68 9.51539 187.491 12.2583 190.968 12.2583H203.147C200.833 9.92174 198.304 7.86742 195.471 6.12915H184.68Z" fill="#84C5E2"/>
<path d="M176.305 0H179.793C182.491 0 184.68 2.13333 184.68 4.75203V6.11781H176.316V0H176.305Z" fill="#84C5E2"/>
</g>
<defs>
<clipPath id="clip0_708_239">
<rect width="213.311" height="32" fill="white" transform="translate(0.344604)"/>
</clipPath>
</defs>
</svg>
