<svg xmlns="http://www.w3.org/2000/svg" width="229" height="24" viewBox="0 0 229 24" fill="none">
  <path d="M2.13815 15.4477C2.57198 19.1662 5.39187 22.0326 9.38928 22.0326C12.0387 22.0326 14.022 20.6227 15.2615 18.6704L17.0433 19.5071C15.4939 22.1101 12.8444 23.9383 9.38928 23.9383C3.91995 23.9383 0 19.693 0 14.4561C0 9.21917 3.71853 4.92737 9.15688 4.92737C14.5952 4.92737 17.601 9.17269 17.601 14.4561C17.601 14.766 17.601 15.1068 17.5546 15.4477H2.13815ZM15.5713 13.4645C15.2615 9.71497 13.1078 6.84861 9.15688 6.84861C5.20594 6.84861 2.54099 9.71497 2.13815 13.4645H15.5713Z" fill="#666560"/>
  <path d="M34.5203 23.6744L28.7411 15.8655L22.9619 23.6744H20.4209L27.4706 14.1922L20.8547 5.23669H23.3957L28.7411 12.4723L34.133 5.23669H36.674L30.0116 14.1922L37.0613 23.6744H34.5203Z" fill="#666560"/>
  <path d="M55.7934 11.2799V23.6749H53.7327V20.7621C52.1059 22.6059 49.6578 23.9383 46.6055 23.9383C42.6856 23.9383 40.2686 21.8777 40.2686 18.8099C40.2686 15.4012 42.7631 13.9138 47.5197 13.2631C52.7566 12.5039 53.7482 12.3799 53.7482 10.815C53.7482 8.67688 51.889 6.8796 48.5888 6.8796C44.6688 6.8796 43.3208 9.01775 43.0729 10.5207L41.0587 10.0558C41.5391 7.71626 43.7082 4.92737 48.5888 4.92737C52.5862 4.92737 55.8089 6.77114 55.8089 11.2799H55.7934ZM53.7327 14.2237C52.6172 14.4561 49.8438 14.9054 47.3957 15.2618C43.9406 15.7266 42.3292 16.7492 42.3292 18.9338C42.3292 20.8086 43.9096 21.9551 46.7295 21.9551C50.0142 21.9551 53.7482 19.662 53.7482 15.7576V14.2237H53.7327Z" fill="#666560"/>
  <path d="M71.5661 22.4971C69.8618 23.9535 67.4448 24.2634 65.9419 23.6901C64.3615 23.1169 63.122 21.7069 63.122 18.2983V7.23564H60.1936V5.25242H63.122V0.542285L65.1827 0V5.23693H69.5364V7.22014H65.1827V18.3602C65.1827 20.9942 66.1278 21.5675 66.8095 21.7999C67.8011 22.1872 69.428 21.7999 70.4196 20.9632L71.5661 22.4971Z" fill="#666560"/>
  <path d="M89.8799 5.23705V23.6748H87.8193V20.9168C86.5178 22.8226 84.612 23.9381 82.071 23.9381C76.8031 23.9381 74.5875 20.3746 74.5875 15.1376V5.22156H76.6482V15.1376C76.6482 20.0027 78.8328 21.9549 82.071 21.9549C85.3093 21.9549 87.8193 20.0492 87.8193 15.525V5.23705H89.8799Z" fill="#666560"/>
  <path d="M107.434 8.80048L105.529 9.63715C105.126 7.9948 103.515 6.92572 100.974 6.92572C98.2776 6.92572 96.6507 8.11875 96.7747 10.2879C96.8986 11.8993 98.5255 12.55 101.609 13.2782C104.739 14.0064 108.225 14.9206 108.225 18.7166C108.225 22.2801 104.971 24 101.531 24C97.1311 24 95.0394 21.9703 94.2802 19.7546L96.1859 18.918C96.6972 20.8702 98.5565 22.0167 101.531 22.0167C103.747 22.0167 106.164 21.1026 106.164 18.732C106.164 16.6714 104.506 16.0516 101.097 15.2459C97.1001 14.2543 94.869 13.1388 94.714 10.3034C94.5591 7.15813 96.8212 4.9425 101.02 4.9425C104.382 4.9425 106.691 6.4764 107.434 8.80048Z" fill="#666560"/>
  <path d="M139.367 4.98938V23.675H135.695V11.8996L130.97 19.2747H128.785L124.059 11.8996V23.675H120.387V4.98938H123.812L129.87 14.4406L135.974 4.98938H139.367Z" fill="#666560"/>
  <path d="M156.163 19.4608H149.609L148.121 23.6751H143.954L151.034 4.9895H154.799L161.88 23.6751H157.712L156.194 19.4608H156.163ZM154.939 16.0676L152.894 10.3349L150.848 16.0676H154.939Z" fill="#666560"/>
  <path d="M172.772 17.2761H170.092V23.6906H166.42V4.9895H173.578C177.885 4.9895 180.302 7.71642 180.302 11.1251C180.302 13.6351 179.032 15.7732 176.63 16.7339L180.782 23.6751H176.63L172.788 17.2606L172.772 17.2761ZM170.092 13.883H173.485C175.313 13.883 176.475 12.7364 176.475 11.1406C176.475 9.5447 175.313 8.41365 173.485 8.41365H170.092V13.883Z" fill="#666560"/>
  <path d="M189.149 4.9895V23.6751H185.477V4.9895H189.149Z" fill="#666560"/>
  <path d="M210.019 4.9895V23.6751H206.394L198.631 11.5589V23.6751H194.959V4.9895H198.554L206.347 17.1057V4.9895H210.019Z" fill="#666560"/>
  <path d="M228.674 20.2974V23.6906H215.814V4.9895H228.504V8.41365H219.486V12.659H227.636V16.0521H219.486V20.2974H228.659H228.674Z" fill="#666560"/>
  <path d="M116.173 14.5021C116.173 15.5402 115.29 16.3768 114.205 16.3768C113.121 16.3768 112.269 15.5557 112.269 14.5021C112.269 13.4485 113.152 12.6273 114.205 12.6273C115.259 12.6273 116.173 13.4485 116.173 14.5021Z" fill="#666560"/>
</svg>