<svg width="24" height="24" viewBox="0 0 24 24" fill="none" xmlns="http://www.w3.org/2000/svg">
<path d="M19.7778 2H4.22228C3.00006 2 2.00006 3 2.00006 4.22222V19.7778C2.00006 21.0011 3.00006 22 4.22228 22H12.0001V14.2222H9.77784V11.4722H12.0001V9.19444C12.0001 6.79 13.3467 5.10111 16.1845 5.10111L18.1878 5.10333V7.99778H16.8578C15.7534 7.99778 15.3334 8.82667 15.3334 9.59556V11.4733H18.1867L17.5556 14.2222H15.3334V22H19.7778C21.0001 22 22.0001 21.0011 22.0001 19.7778V4.22222C22.0001 3 21.0001 2 19.7778 2Z" fill="#666560"/>
</svg>
