<svg width="94" height="80" viewBox="0 0 94 80" fill="none" xmlns="http://www.w3.org/2000/svg">
<path d="M0.326111 24.6631H19.4866C26.2309 24.6631 31.7054 29.9965 31.7054 36.5432V39.9577H0.326111V24.6349V24.6631Z" fill="#F4AF9F"/>
<path d="M75.4727 39.9857H31.7054C31.7054 48.4513 38.7319 55.3085 47.4232 55.3085H85.1235C82.3581 49.9187 79.1411 44.7829 75.4727 39.9857Z" fill="#F4AF9F"/>
<path d="M89.3564 64.677H42.1746C42.1746 73.1426 49.201 79.9998 57.8924 79.9998H93.6739C92.6298 74.7229 91.1906 69.6153 89.3564 64.677Z" fill="#30B6A9"/>
<path d="M0.326111 49.3544H29.9558C36.7001 49.3544 42.1746 54.6877 42.1746 61.2345V64.649H0.326111V49.3262V49.3544Z" fill="#30B6A9"/>
<path d="M21.2644 15.3231C21.2644 23.7888 28.2909 30.6459 36.9823 30.6459H67.4303C61.6455 24.8046 55.3244 19.6688 48.2415 15.3231H21.2644Z" fill="#84C5E2"/>
<path d="M0.326111 0H9.0457C15.79 0 21.2644 5.33335 21.2644 11.8801V15.2946H0.354314V0H0.326111Z" fill="#84C5E2"/>
</svg>
