<svg width="180" height="180" viewBox="0 0 180 180" fill="none" xmlns="http://www.w3.org/2000/svg">
<path d="M180 90C180 139.706 139.706 180 90 180C40.2944 180 0 139.706 0 90C0 40.2944 40.2944 0 90 0C139.706 0 180 40.2944 180 90Z" fill="#84C5E2"/>
<path d="M154.058 92.9561L162.652 91.4725L162.548 92.5475L155.195 93.6569L162.175 96.4055L162.068 97.5163L154.696 98.8168L161.698 101.338L161.594 102.413L153.46 99.2639L153.571 98.1172L160.667 96.7901L153.961 94.08L154.058 92.9561Z" fill="#121213"/>
<path d="M151.804 106.369C151.948 105.82 152.2 105.365 152.559 105.005C152.927 104.646 153.367 104.402 153.881 104.273C154.393 104.151 154.954 104.17 155.565 104.331C156.169 104.489 156.664 104.748 157.049 105.105C157.443 105.465 157.707 105.89 157.843 106.381C157.984 106.881 157.981 107.414 157.832 107.979C157.686 108.536 157.432 108.982 157.071 109.317C156.716 109.662 156.305 109.889 155.838 109.998C155.371 110.107 154.901 110.099 154.429 109.975C154.344 109.953 154.26 109.927 154.177 109.897C154.092 109.874 153.995 109.849 153.887 109.82L155.092 105.236C154.645 105.143 154.251 105.147 153.91 105.248C153.575 105.358 153.298 105.53 153.08 105.762C152.86 106.002 152.709 106.276 152.628 106.586C152.522 106.988 152.526 107.349 152.641 107.669C152.755 107.988 152.955 108.252 153.239 108.459L152.986 109.422C152.493 109.127 152.127 108.712 151.887 108.178C151.652 107.653 151.625 107.05 151.804 106.369ZM157.015 107.739C157.137 107.275 157.102 106.823 156.912 106.384C156.727 105.955 156.37 105.642 155.843 105.446L154.891 109.067C155.416 109.18 155.869 109.109 156.25 108.853C156.632 108.598 156.886 108.227 157.015 107.739Z" fill="#121213"/>
<path d="M150.607 110.833L158.752 113.716L158.416 114.666L150.271 111.784L150.607 110.833Z" fill="#121213"/>
<path d="M149.516 113.777L157.511 117.053L157.129 117.986L149.134 114.71L149.516 113.777Z" fill="#121213"/>
<path d="M148.213 116.938L153.507 119.657L153.091 120.468L152.113 120.034C152.36 120.376 152.497 120.757 152.525 121.176C152.552 121.595 152.462 122.007 152.254 122.413C151.932 123.039 151.484 123.438 150.91 123.611C150.339 123.795 149.658 123.683 148.869 123.278L145.773 121.688L146.234 120.791L149.233 122.332C150.336 122.898 151.122 122.726 151.589 121.815C151.823 121.36 151.852 120.893 151.674 120.415C151.501 119.948 151.108 119.558 150.496 119.243L147.752 117.834L148.213 116.938Z" fill="#121213"/>
<path d="M143.053 125.696C143.37 125.225 143.758 124.878 144.216 124.656C144.681 124.438 145.177 124.353 145.705 124.4C146.228 124.453 146.752 124.656 147.276 125.009C147.794 125.357 148.176 125.764 148.423 126.229C148.676 126.698 148.786 127.186 148.753 127.694C148.722 128.214 148.543 128.715 148.217 129.2C147.895 129.678 147.509 130.016 147.058 130.213C146.609 130.422 146.146 130.501 145.669 130.45C145.192 130.399 144.751 130.238 144.346 129.965C144.273 129.916 144.202 129.864 144.134 129.808C144.061 129.759 143.978 129.703 143.885 129.64L146.531 125.708C146.14 125.473 145.766 125.347 145.411 125.33C145.059 125.324 144.741 125.395 144.458 125.543C144.172 125.697 143.939 125.906 143.76 126.172C143.528 126.517 143.413 126.859 143.416 127.199C143.419 127.538 143.521 127.853 143.722 128.142L143.166 128.968C142.797 128.527 142.587 128.015 142.537 127.431C142.488 126.859 142.66 126.28 143.053 125.696ZM147.523 128.704C147.791 128.306 147.908 127.868 147.872 127.391C147.838 126.925 147.605 126.512 147.172 126.153L145.081 129.26C145.54 129.539 145.991 129.621 146.435 129.505C146.879 129.389 147.242 129.122 147.523 128.704Z" fill="#121213"/>
<path d="M138.856 131.254C139.314 130.708 139.832 130.37 140.411 130.24C140.991 130.11 141.542 130.212 142.065 130.547L141.402 131.338C141.122 131.186 140.808 131.137 140.46 131.19C140.114 131.254 139.794 131.461 139.501 131.811C139.229 132.135 139.095 132.431 139.102 132.697C139.114 132.969 139.215 133.184 139.405 133.344C139.681 133.575 139.95 133.628 140.211 133.503C140.468 133.384 140.785 133.175 141.161 132.875C141.416 132.671 141.692 132.485 141.99 132.317C142.288 132.149 142.589 132.052 142.893 132.025C143.203 132.003 143.496 132.108 143.772 132.34C144.171 132.674 144.372 133.094 144.376 133.599C144.382 134.115 144.171 134.627 143.744 135.136C143.338 135.62 142.884 135.913 142.381 136.013C141.88 136.125 141.385 136.018 140.897 135.692L141.537 134.929C141.796 135.094 142.061 135.144 142.334 135.081C142.608 135.028 142.863 134.861 143.099 134.579C143.331 134.303 143.452 134.04 143.465 133.789C143.472 133.544 143.38 133.342 143.19 133.183C143.006 133.029 142.782 133.003 142.519 133.105C142.25 133.214 141.94 133.403 141.589 133.672C141.291 133.903 140.991 134.105 140.688 134.279C140.386 134.464 140.08 134.562 139.768 134.572C139.458 134.594 139.137 134.466 138.806 134.188C138.39 133.85 138.181 133.408 138.179 132.863C138.178 132.329 138.404 131.793 138.856 131.254Z" fill="#121213"/>
<path d="M134.515 135.907C135.024 135.409 135.573 135.124 136.162 135.051C136.751 134.978 137.289 135.134 137.777 135.518L137.04 136.24C136.776 136.062 136.468 135.982 136.117 136.001C135.766 136.031 135.428 136.205 135.102 136.524C134.799 136.821 134.637 137.102 134.618 137.368C134.603 137.639 134.683 137.863 134.856 138.041C135.108 138.298 135.37 138.377 135.643 138.278C135.91 138.185 136.245 138.008 136.65 137.746C136.923 137.568 137.217 137.41 137.529 137.272C137.842 137.134 138.151 137.067 138.456 137.07C138.767 137.079 139.049 137.212 139.301 137.47C139.664 137.841 139.824 138.279 139.778 138.782C139.733 139.296 139.473 139.785 138.999 140.25C138.547 140.692 138.066 140.938 137.557 140.989C137.047 141.051 136.565 140.896 136.111 140.524L136.822 139.827C137.064 140.016 137.323 140.093 137.601 140.056C137.878 140.031 138.148 139.89 138.411 139.632C138.669 139.38 138.816 139.13 138.852 138.882C138.883 138.639 138.812 138.429 138.639 138.251C138.471 138.08 138.251 138.032 137.978 138.108C137.7 138.19 137.373 138.348 136.997 138.581C136.678 138.782 136.36 138.954 136.041 139.097C135.723 139.252 135.408 139.319 135.097 139.299C134.786 139.29 134.48 139.131 134.177 138.822C133.797 138.445 133.632 137.985 133.683 137.442C133.734 136.911 134.011 136.399 134.515 135.907Z" fill="#121213"/>
<path d="M128.994 140.933L133.835 147.797L133.012 148.378L128.634 142.171L125.437 144.425L124.973 143.768L128.994 140.933Z" fill="#121213"/>
<path d="M126.152 151.54C126.325 151.438 126.502 151.408 126.684 151.449C126.863 151.501 127.004 151.613 127.106 151.785C127.203 151.951 127.23 152.121 127.184 152.296C127.132 152.476 127.02 152.616 126.848 152.718C126.683 152.815 126.509 152.844 126.327 152.803C126.145 152.762 126.005 152.659 125.907 152.493C125.805 152.321 125.778 152.142 125.826 151.956C125.878 151.776 125.987 151.638 126.152 151.54ZM122.888 145.022L125.915 150.147L125.047 150.66L122.02 145.535L122.888 145.022Z" fill="#121213"/>
<path d="M119.872 146.723L122.202 151.259L123.003 150.848L123.392 151.606L122.591 152.017L123.063 152.935C123.326 153.447 123.39 153.887 123.254 154.253C123.119 154.62 122.806 154.929 122.315 155.181L121.781 155.455L121.386 154.687L121.781 154.484C122.051 154.345 122.214 154.189 122.27 154.017C122.329 153.852 122.291 153.638 122.155 153.374L121.695 152.478L120.393 153.147L120.003 152.389L121.306 151.72L118.975 147.183L119.872 146.723Z" fill="#121213"/>
<path d="M113.705 149.408C114.233 149.197 114.748 149.128 115.252 149.202C115.758 149.283 116.217 149.491 116.627 149.827C117.03 150.165 117.349 150.628 117.584 151.214C117.817 151.793 117.904 152.344 117.847 152.867C117.792 153.398 117.609 153.864 117.295 154.265C116.978 154.677 116.548 154.991 116.006 155.209C115.472 155.423 114.962 155.485 114.478 155.395C113.989 155.315 113.562 155.121 113.196 154.81C112.83 154.5 112.556 154.119 112.375 153.666C112.342 153.584 112.313 153.501 112.288 153.416C112.255 153.335 112.218 153.242 112.176 153.138L116.575 151.373C116.383 150.959 116.145 150.645 115.861 150.431C115.573 150.228 115.27 150.108 114.954 150.071C114.63 150.037 114.32 150.08 114.023 150.199C113.637 150.354 113.349 150.573 113.161 150.855C112.972 151.138 112.88 151.455 112.883 151.807L111.959 152.178C111.902 151.606 112.016 151.064 112.303 150.553C112.584 150.052 113.052 149.67 113.705 149.408ZM115.711 154.409C116.157 154.23 116.499 153.934 116.738 153.519C116.972 153.115 117.011 152.642 116.854 152.102L113.38 153.495C113.601 153.984 113.928 154.305 114.361 154.459C114.793 154.614 115.243 154.597 115.711 154.409Z" fill="#121213"/>
<path d="M107.046 151.648C107.732 151.456 108.351 151.47 108.902 151.69C109.453 151.91 109.85 152.306 110.093 152.878L109.099 153.155C108.954 152.872 108.722 152.654 108.406 152.501C108.084 152.359 107.703 152.349 107.264 152.471C106.855 152.585 106.578 152.754 106.433 152.977C106.29 153.208 106.252 153.443 106.318 153.682C106.415 154.029 106.607 154.225 106.893 154.269C107.172 154.316 107.552 154.322 108.032 154.288C108.358 154.263 108.691 154.266 109.031 154.295C109.372 154.325 109.675 154.415 109.941 154.565C110.209 154.722 110.392 154.974 110.489 155.321C110.628 155.822 110.558 156.282 110.276 156.701C109.989 157.13 109.525 157.434 108.886 157.613C108.277 157.782 107.737 157.767 107.266 157.566C106.789 157.376 106.441 157.008 106.222 156.462L107.182 156.195C107.302 156.477 107.493 156.668 107.753 156.77C108.009 156.881 108.314 156.888 108.668 156.789C109.015 156.692 109.264 156.543 109.416 156.343C109.56 156.145 109.599 155.927 109.532 155.688C109.467 155.457 109.298 155.309 109.022 155.245C108.739 155.183 108.376 155.163 107.935 155.187C107.559 155.209 107.196 155.206 106.848 155.179C106.495 155.161 106.186 155.069 105.924 154.901C105.655 154.743 105.463 154.457 105.347 154.04C105.195 153.526 105.272 153.044 105.578 152.593C105.879 152.152 106.368 151.837 107.046 151.648Z" fill="#121213"/>
<path d="M100.802 153.185C101.337 153.087 101.782 153.14 102.137 153.344C102.491 153.547 102.73 153.987 102.854 154.664L103.443 157.887L104.458 157.701L104.611 158.539L103.596 158.725L103.723 160.153L102.861 160.311L102.605 158.906L100.881 159.221L100.728 158.383L102.451 158.068L101.862 154.845C101.795 154.475 101.674 154.237 101.5 154.131C101.327 154.032 101.052 154.018 100.674 154.087L100.061 154.199L99.9052 153.349L100.802 153.185Z" fill="#121213"/>
<path d="M96.9288 151.086L95.7179 154.411L96.0647 154.383L98.856 159.55L97.7675 159.639L95.4312 155.181L93.7248 159.967L92.6843 160.051L95.8763 151.172L96.9288 151.086Z" fill="#121213"/>
<path d="M90.2103 154.084L90.1436 162.723L89.1356 162.716L89.2023 154.076L90.2103 154.084Z" fill="#121213"/>
<path d="M84.2313 153.675C84.7971 153.725 85.2878 153.897 85.7034 154.191C86.1183 154.493 86.4327 154.887 86.6465 155.372C86.8525 155.856 86.9274 156.413 86.8714 157.042C86.8162 157.664 86.6445 158.195 86.3563 158.635C86.0675 159.083 85.6926 159.415 85.2317 159.631C84.762 159.854 84.2364 159.94 83.6547 159.888C83.0809 159.837 82.5986 159.662 82.2076 159.362C81.8079 159.07 81.5153 158.702 81.3298 158.26C81.1442 157.818 81.0731 157.354 81.1163 156.868C81.1241 156.78 81.1359 156.693 81.1516 156.606C81.1594 156.518 81.1683 156.418 81.1782 156.307L85.8996 156.727C85.916 156.27 85.8461 155.883 85.6898 155.564C85.5247 155.252 85.3095 155.008 85.0441 154.832C84.7707 154.655 84.4746 154.552 84.1559 154.524C83.7415 154.487 83.3864 154.552 83.0905 154.718C82.7946 154.884 82.5683 155.125 82.4118 155.441L81.4197 155.353C81.628 154.817 81.9755 154.386 82.4623 154.06C82.9404 153.741 83.5301 153.613 84.2313 153.675ZM83.7541 159.042C84.2322 159.084 84.6716 158.975 85.0723 158.713C85.4644 158.459 85.7131 158.055 85.8185 157.503L82.0892 157.171C82.0657 157.707 82.2117 158.142 82.5274 158.475C82.8432 158.808 83.252 158.997 83.7541 159.042Z" fill="#121213"/>
<path d="M77.7881 152.912L78.7931 159.197L77.759 158.983L77.0156 153.744L74.2452 158.257L73.2345 158.048L76.6482 152.676L77.7881 152.912Z" fill="#121213"/>
<path d="M63.9787 151.337C64.2138 151.439 64.4087 151.593 64.5636 151.799C64.7112 152.002 64.8009 152.228 64.8328 152.477C64.8615 152.734 64.8236 152.983 64.7189 153.225C64.6111 153.475 64.4556 153.674 64.2525 153.821C64.0461 153.976 63.8185 154.07 63.5694 154.102C63.313 154.13 63.0673 154.094 62.8323 153.992C62.5826 153.885 62.3839 153.729 62.2364 153.526C62.0815 153.32 61.9897 153.088 61.961 152.832C61.9291 152.583 61.967 152.334 62.0749 152.084C62.1795 151.841 62.335 151.643 62.5413 151.488C62.7444 151.34 62.9742 151.252 63.2306 151.223C63.4796 151.192 63.729 151.23 63.9787 151.337Z" fill="#121213"/>
<path d="M51.4633 141.239L47.821 149.164L46.9937 148.469L50.2415 141.78L44.0245 145.978L43.1696 145.261L46.2704 138.448L40.2281 142.792L39.4008 142.098L46.602 137.175L47.4845 137.916L44.5611 144.517L50.5915 140.523L51.4633 141.239Z" fill="#121213"/>
<path d="M41.7881 131.901C42.161 132.33 42.3954 132.794 42.4913 133.294C42.5811 133.799 42.535 134.301 42.3532 134.798C42.1661 135.29 41.8342 135.743 41.3575 136.158C40.8869 136.568 40.3952 136.832 39.8824 136.949C39.3636 137.072 38.8631 137.052 38.3811 136.888C37.8879 136.724 37.4495 136.421 37.066 135.981C36.6878 135.546 36.4617 135.085 36.3876 134.598C36.3023 134.11 36.346 133.643 36.5187 133.195C36.6914 132.748 36.9617 132.364 37.3298 132.044C37.3962 131.986 37.4652 131.931 37.5368 131.879C37.6032 131.822 37.6786 131.756 37.763 131.682L40.8755 135.257C41.2036 134.94 41.422 134.612 41.5304 134.274C41.6276 133.934 41.6416 133.609 41.5723 133.298C41.4979 132.981 41.3556 132.702 41.1455 132.461C40.8723 132.147 40.5714 131.948 40.2427 131.862C39.9141 131.777 39.584 131.794 39.2526 131.913L38.5986 131.162C39.12 130.92 39.6691 130.85 40.2461 130.953C40.8118 131.054 41.3258 131.37 41.7881 131.901ZM37.7244 135.439C38.0395 135.801 38.4322 136.027 38.9023 136.116C39.3612 136.205 39.8202 136.086 40.2793 135.761L37.8209 132.937C37.4324 133.307 37.2364 133.721 37.233 134.18C37.2296 134.64 37.3934 135.059 37.7244 135.439Z" fill="#121213"/>
<path d="M38.7489 128.363L31.7805 133.471L31.1846 132.658L38.153 127.55L38.7489 128.363Z" fill="#121213"/>
<path d="M36.8772 125.723L29.6565 130.468L29.103 129.626L36.3237 124.881L36.8772 125.723Z" fill="#121213"/>
<path d="M35.0946 123.009L29.8724 125.864L29.4348 125.064L30.3431 124.499C29.9211 124.511 29.529 124.411 29.1667 124.199C28.8045 123.986 28.514 123.68 28.2952 123.28C27.9574 122.663 27.8783 122.068 28.0577 121.495C28.2263 120.92 28.7002 120.419 29.4793 119.993L32.5326 118.323L33.0162 119.208L30.0577 120.826C28.9697 121.421 28.6714 122.167 29.1626 123.066C29.4083 123.515 29.7786 123.8 30.2735 123.922C30.7576 124.04 31.3015 123.934 31.9051 123.604L34.611 122.124L35.0946 123.009Z" fill="#121213"/>
<path d="M30.7432 113.807C30.9547 114.334 31.0235 114.849 30.9497 115.353C30.8685 115.86 30.6602 116.318 30.3248 116.728C29.9865 117.131 29.524 117.45 28.9375 117.686C28.3583 117.918 27.8073 118.005 27.2843 117.948C26.7539 117.894 26.288 117.71 25.8866 117.397C25.4748 117.079 25.1602 116.649 24.9428 116.107C24.7284 115.573 24.6662 115.063 24.7564 114.579C24.8361 114.09 25.0311 113.663 25.3412 113.297C25.6514 112.931 26.0329 112.658 26.4858 112.476C26.5675 112.443 26.6507 112.414 26.7353 112.389C26.817 112.356 26.9098 112.319 27.0137 112.277L28.7783 116.676C29.1926 116.484 29.5066 116.246 29.7202 115.963C29.9235 115.674 30.0435 115.372 30.0804 115.055C30.1142 114.731 30.0716 114.421 29.9525 114.124C29.7976 113.738 29.5789 113.451 29.2965 113.262C29.0141 113.074 28.6968 112.981 28.3447 112.985L27.974 112.06C28.5458 112.003 29.0874 112.118 29.5987 112.404C30.0997 112.686 30.4811 113.153 30.7432 113.807ZM25.7425 115.813C25.9212 116.258 26.2179 116.6 26.6326 116.839C27.0369 117.073 27.5093 117.112 28.0499 116.956L26.6561 113.481C26.1676 113.703 25.8463 114.03 25.6922 114.462C25.5381 114.895 25.5549 115.345 25.7425 115.813Z" fill="#121213"/>
<path d="M28.4994 107.16C28.6909 107.845 28.6767 108.464 28.4568 109.015C28.237 109.567 27.8412 109.964 27.2694 110.207L26.9919 109.213C27.2752 109.067 27.4931 108.836 27.6456 108.519C27.7882 108.197 27.7982 107.816 27.6756 107.377C27.5616 106.969 27.3929 106.692 27.1696 106.547C26.9386 106.403 26.7037 106.365 26.4648 106.432C26.1181 106.529 25.9224 106.72 25.8778 107.007C25.8311 107.286 25.8249 107.665 25.8594 108.146C25.8838 108.471 25.8812 108.804 25.8516 109.145C25.8221 109.485 25.7323 109.788 25.5824 110.055C25.4247 110.323 25.1725 110.505 24.8257 110.602C24.3249 110.742 23.8649 110.671 23.4457 110.389C23.0167 110.102 22.7129 109.639 22.5344 108.999C22.3644 108.39 22.3798 107.85 22.5805 107.379C22.7713 106.902 23.1393 106.554 23.6846 106.336L23.9524 107.295C23.6704 107.415 23.4786 107.606 23.377 107.867C23.2655 108.122 23.2593 108.427 23.3582 108.782C23.455 109.128 23.6035 109.378 23.8037 109.529C24.0017 109.673 24.2202 109.712 24.459 109.645C24.6902 109.581 24.8379 109.411 24.9022 109.136C24.9644 108.852 24.9836 108.49 24.9599 108.048C24.9381 107.672 24.9408 107.31 24.9682 106.962C24.9857 106.608 25.0783 106.3 25.2458 106.037C25.4035 105.769 25.6904 105.577 26.1064 105.46C26.6206 105.309 27.1031 105.386 27.5539 105.692C27.995 105.992 28.3101 106.482 28.4994 107.16Z" fill="#121213"/>
<path d="M27.1225 101.018C27.2452 101.72 27.1699 102.334 26.8966 102.861C26.6233 103.388 26.1902 103.744 25.5972 103.929L25.4194 102.912C25.7157 102.795 25.9553 102.587 26.1384 102.287C26.3122 101.98 26.3598 101.603 26.2812 101.153C26.2081 100.736 26.0677 100.444 25.8599 100.277C25.6442 100.112 25.4142 100.05 25.1699 100.093C24.8152 100.155 24.6016 100.326 24.5289 100.607C24.4548 100.88 24.4111 101.257 24.3979 101.739C24.39 102.065 24.3545 102.396 24.2914 102.732C24.2284 103.068 24.109 103.361 23.9335 103.611C23.7501 103.862 23.481 104.019 23.1264 104.081C22.6142 104.17 22.1635 104.054 21.7742 103.733C21.3757 103.404 21.1192 102.913 21.0048 102.259C20.8959 101.637 20.9646 101.101 21.2109 100.652C21.4479 100.196 21.8486 99.8863 22.4128 99.7226L22.5844 100.704C22.2918 100.795 22.0821 100.966 21.9552 101.216C21.8191 101.459 21.7827 101.762 21.8461 102.124C21.9082 102.479 22.0313 102.741 22.2155 102.912C22.3983 103.075 22.6118 103.135 22.8561 103.093C23.0925 103.051 23.2563 102.897 23.3476 102.629C23.4374 102.353 23.4924 101.995 23.5125 101.552C23.5279 101.176 23.5665 100.816 23.6282 100.472C23.6806 100.122 23.8032 99.8246 23.9958 99.5797C24.1793 99.3283 24.4838 99.1654 24.9093 99.091C25.4359 98.9907 25.9084 99.1152 26.3268 99.4643C26.736 99.8069 27.0012 100.325 27.1225 101.018Z" fill="#121213"/>
<path d="M26.0929 93.6965L17.6939 93.8262L17.6784 92.8183L25.2735 92.701L25.2131 88.7895L26.017 88.7771L26.0929 93.6965Z" fill="#121213"/>
<path d="M18.9412 85.1495C18.9273 85.349 18.8518 85.5121 18.7146 85.6389C18.5701 85.7572 18.3981 85.8094 18.1985 85.7955C18.007 85.7822 17.8518 85.7072 17.733 85.5706C17.6148 85.4261 17.5626 85.2541 17.5764 85.0545C17.5898 84.863 17.665 84.7038 17.8021 84.577C17.9393 84.4503 18.1036 84.3935 18.2951 84.4068C18.4946 84.4207 18.6575 84.5002 18.7838 84.6453C18.902 84.7899 18.9545 84.9579 18.9412 85.1495ZM26.1607 86.1568L20.223 85.7438L20.2929 84.7383L26.2306 85.1512L26.1607 86.1568Z" fill="#121213"/>
<path d="M26.4853 82.4873L21.429 81.8211L21.3114 82.7134L20.4667 82.6021L20.5843 81.7098L19.5611 81.575C18.9901 81.4997 18.5925 81.3021 18.3683 80.9821C18.1442 80.6621 18.0682 80.2284 18.1403 79.6812L18.2187 79.0863L19.0753 79.1992L19.0173 79.6394C18.9776 79.9407 19.0128 80.1633 19.123 80.3069C19.2253 80.4495 19.4231 80.5401 19.7166 80.5787L20.716 80.7104L20.9072 79.259L21.7519 79.3702L21.5607 80.8217L26.617 81.4879L26.4853 82.4873Z" fill="#121213"/>
<path d="M27.7664 75.915C27.6409 76.469 27.4047 76.9322 27.0578 77.3048C26.7031 77.6756 26.2712 77.9345 25.7621 78.0817C25.2547 78.221 24.6929 78.2208 24.0765 78.0812C23.4679 77.9433 22.9648 77.7021 22.5671 77.3577C22.1615 77.0116 21.8825 76.5956 21.7301 76.1099C21.5716 75.6147 21.5569 75.0822 21.686 74.5127C21.8133 73.9509 22.0516 73.4964 22.401 73.149C22.7444 72.792 23.1476 72.5512 23.6106 72.4264C24.0736 72.3016 24.5431 72.2932 25.019 72.401C25.1048 72.4205 25.1898 72.4438 25.2738 72.4711C25.3597 72.4905 25.4572 72.5126 25.5664 72.5374L24.519 77.1602C24.969 77.2375 25.3626 77.2201 25.6997 77.1078C26.0308 76.986 26.3015 76.8053 26.5116 76.5658C26.7235 76.3185 26.8648 76.0388 26.9355 75.7267C27.0274 75.321 27.0107 74.9604 26.8853 74.6449C26.7599 74.3294 26.5514 74.073 26.2598 73.8757L26.4799 72.9043C26.9829 73.1823 27.3635 73.5844 27.6216 74.1104C27.8737 74.6269 27.922 75.2284 27.7664 75.915ZM22.5116 74.7244C22.4055 75.1925 22.4553 75.6426 22.6609 76.0747C22.8605 76.4973 23.2271 76.7977 23.7609 76.9761L24.5883 73.3247C24.0602 73.2296 23.6099 73.3163 23.2374 73.5846C22.8649 73.8529 22.623 74.2328 22.5116 74.7244Z" fill="#121213"/>
<path d="M29.6105 69.4072C29.3805 70.081 29.0189 70.5832 28.5258 70.9136C28.0326 71.244 27.4816 71.3476 26.8728 71.2243L27.2061 70.2476C27.5221 70.2879 27.8325 70.2205 28.1373 70.0456C28.4372 69.8605 28.6607 69.5522 28.808 69.1206C28.945 68.7194 28.9625 68.3957 28.8605 68.1495C28.751 67.9008 28.5788 67.7364 28.3441 67.6563C28.0034 67.54 27.7337 67.5874 27.5348 67.7985C27.3386 68.0021 27.1188 68.3117 26.8755 68.7274C26.7115 69.0095 26.5211 69.2827 26.3042 69.5468C26.0873 69.8108 25.8417 70.0102 25.5675 70.1449C25.2858 70.2769 24.9745 70.2848 24.6338 70.1686C24.1417 70.0006 23.8024 69.6819 23.616 69.2126C23.4247 68.7331 23.4362 68.1791 23.6507 67.5507C23.8548 66.9526 24.1729 66.5159 24.6049 66.2407C25.032 65.9553 25.5322 65.8767 26.1056 66.0048L25.7839 66.9474C25.4833 66.887 25.2173 66.9357 24.9859 67.0935C24.7496 67.241 24.572 67.489 24.4531 67.8372C24.3369 68.1779 24.3183 68.4675 24.3976 68.7059C24.4794 68.9367 24.6377 69.0921 24.8724 69.1722C25.0996 69.2497 25.3175 69.1931 25.5263 69.0023C25.7377 68.804 25.9586 68.5159 26.189 68.138C26.3836 67.8156 26.5906 67.5186 26.8101 67.2469C27.0247 66.9651 27.2753 66.7632 27.5621 66.6413C27.8438 66.5092 28.1891 66.513 28.598 66.6525C29.1078 66.8181 29.4621 67.1545 29.6609 67.6619C29.8547 68.1592 29.8379 68.7409 29.6105 69.4072Z" fill="#121213"/>
<path d="M31.9023 63.2906C31.6792 63.7867 31.3833 64.1229 31.0146 64.2992C30.6458 64.4756 30.1477 64.4226 29.5202 64.1405L26.5323 62.7972L26.1091 63.7384L25.3321 63.389L25.7553 62.4478L24.507 61.7418L24.8662 60.9429L26.1686 61.5284L26.887 59.9305L27.6641 60.2799L26.9457 61.8778L29.9336 63.2212C30.2765 63.3754 30.5412 63.411 30.7275 63.3281C30.9066 63.242 31.0749 63.0238 31.2323 62.6736L31.4882 62.1045L32.2762 62.4588L31.9023 63.2906Z" fill="#121213"/>
<path d="M35.7889 61.3189L33.7387 58.4348L33.565 58.7364L27.7266 58.1018L28.2716 57.1556L33.2676 57.7619L30.2958 53.6408L30.8169 52.7361L36.3159 60.4038L35.7889 61.3189Z" fill="#121213"/>
<path d="M37.0321 54.2065L29.9354 49.2785L30.5103 48.4505L37.6071 53.3785L37.0321 54.2065Z" fill="#121213"/>
<path d="M40.8012 49.4251C40.4392 49.8629 40.0194 50.1697 39.5417 50.3457C39.0579 50.5166 38.5556 50.5528 38.0349 50.4545C37.5193 50.3499 37.0179 50.0963 36.5308 49.6936C36.0499 49.296 35.7097 48.8538 35.5101 48.367C35.3044 47.8751 35.2431 47.378 35.3261 46.8758C35.4081 46.3623 35.6352 45.8805 36.0073 45.4304C36.3744 44.9865 36.7922 44.6884 37.2607 44.536C37.7282 44.3723 38.1967 44.3393 38.6662 44.4368C39.1357 44.5344 39.5585 44.7386 39.9346 45.0496C40.0024 45.1056 40.0677 45.1648 40.1304 45.227C40.1982 45.2831 40.2753 45.3468 40.3616 45.4182L37.3412 49.0713C37.708 49.3433 38.0671 49.5053 38.4186 49.5572C38.7691 49.5979 39.0921 49.5587 39.3877 49.4398C39.6883 49.3147 39.9406 49.1288 40.1445 48.8822C40.4096 48.5616 40.5574 48.2322 40.5878 47.8941C40.6183 47.556 40.5479 47.2331 40.3766 46.9254L41.0113 46.1578C41.3348 46.6328 41.493 47.1633 41.4861 47.7493C41.4781 48.3239 41.2497 48.8825 40.8012 49.4251ZM36.6487 45.9918C36.3428 46.3618 36.1841 46.7859 36.1727 47.2643C36.1601 47.7314 36.3518 48.165 36.7477 48.565L39.1334 45.6795C38.7051 45.3565 38.2641 45.2307 37.8106 45.3021C37.3571 45.3735 36.9698 45.6034 36.6487 45.9918Z" fill="#121213"/>
<path d="M50.3744 36.6325C50.1679 36.7838 49.9365 36.8741 49.6802 36.9033C49.4303 36.9277 49.1899 36.8907 48.9589 36.7922C48.7233 36.6872 48.5274 36.5282 48.3713 36.3153C48.2105 36.0959 48.1179 35.8613 48.0934 35.6114C48.0642 35.3551 48.0989 35.1114 48.1974 34.8805C48.3024 34.6449 48.4582 34.4513 48.6646 34.3C48.884 34.1392 49.1186 34.0466 49.3685 34.0221C49.6249 33.9929 49.8709 34.0308 50.1065 34.1358C50.3375 34.2343 50.5333 34.3933 50.6941 34.6127C50.8502 34.8256 50.9428 35.0602 50.972 35.3165C50.9965 35.5664 50.9562 35.8092 50.8512 36.0449C50.7527 36.2758 50.5938 36.4717 50.3744 36.6325Z" fill="#121213"/>
<path d="M65.4071 30.9054L60.4284 23.7442L61.4465 23.3838L65.561 29.5779L65.1004 22.0906L66.1524 21.7182L70.4479 27.8483L69.7724 20.437L70.7905 20.0766L71.376 28.78L70.29 29.1644L66.0866 23.2945L66.4665 30.5177L65.4071 30.9054Z" fill="#121213"/>
<path d="M78.3894 27.286C77.8307 27.3882 77.3119 27.3529 76.833 27.1802C76.3527 26.9997 75.9449 26.7042 75.6096 26.2938C75.2822 25.882 75.0617 25.3652 74.948 24.7435C74.8358 24.1297 74.86 23.5722 75.0205 23.0712C75.1796 22.5623 75.4525 22.1424 75.8393 21.8114C76.2325 21.4711 76.7163 21.2485 77.2908 21.1435C77.8574 21.0399 78.3691 21.0805 78.8258 21.2654C79.2889 21.441 79.6688 21.7172 79.9654 22.094C80.262 22.4708 80.4541 22.8992 80.5419 23.3792C80.5577 23.4658 80.5696 23.5531 80.5776 23.6411C80.5934 23.7277 80.6114 23.826 80.6315 23.9362L75.9688 24.7887C76.0744 25.2329 76.2451 25.588 76.4807 25.854C76.7228 26.1106 76.9953 26.2885 77.2981 26.3877C77.6087 26.4854 77.9214 26.5055 78.2362 26.4479C78.6454 26.3731 78.9705 26.2161 79.2114 25.9769C79.4523 25.7377 79.6062 25.4452 79.6731 25.0995L80.6529 24.9204C80.5948 25.4922 80.3745 26.0001 79.9921 26.4441C79.6162 26.8788 79.0819 27.1594 78.3894 27.286ZM77.4204 21.9859C76.9483 22.0722 76.5538 22.2948 76.2372 22.6536C75.927 23.0031 75.7947 23.4583 75.8403 24.0192L79.5233 23.3459C79.4033 22.8229 79.1468 22.4429 78.7537 22.2057C78.3606 21.9685 77.9162 21.8953 77.4204 21.9859Z" fill="#121213"/>
<path d="M83.0994 26.4492L82.2678 17.8493L83.2711 17.7523L84.1027 26.3522L83.0994 26.4492Z" fill="#121213"/>
<path d="M86.3482 26.1819L85.9482 17.5512L86.9551 17.5045L87.3551 26.1352L86.3482 26.1819Z" fill="#121213"/>
<path d="M89.8149 26.023L90.0446 20.0754L90.9559 20.1106L90.9747 21.1802C91.181 20.8118 91.4682 20.5267 91.8363 20.3248C92.2044 20.1228 92.6162 20.0306 93.0719 20.0482C93.7754 20.0754 94.3266 20.3128 94.7256 20.7606C95.133 21.2006 95.3195 21.8643 95.2852 22.7516L95.151 26.229L94.1437 26.1902L94.2738 22.8207C94.3217 21.5816 93.834 20.9423 92.8107 20.9028C92.2991 20.883 91.8642 21.0544 91.5059 21.4168C91.156 21.7716 90.9677 22.2927 90.9412 22.9802L90.8222 26.0619L89.8149 26.023Z" fill="#121213"/>
<path d="M99.8112 26.9668C99.2499 26.8796 98.7715 26.6758 98.376 26.3553C97.9817 26.027 97.6936 25.6139 97.5118 25.1161C97.338 24.6196 97.2995 24.059 97.3965 23.4345C97.4922 22.8179 97.6982 22.2993 98.0144 21.8789C98.3319 21.4505 98.7277 21.1436 99.2017 20.9581C99.6849 20.766 100.215 20.7147 100.792 20.8043C101.361 20.8927 101.831 21.0992 102.202 21.4239C102.582 21.7419 102.85 22.1276 103.006 22.5809C103.162 23.0343 103.203 23.5021 103.128 23.9843C103.114 24.0712 103.097 24.1576 103.076 24.2433C103.062 24.3303 103.047 24.4291 103.03 24.5398L98.3457 23.8126C98.2995 24.2669 98.3439 24.6583 98.4791 24.987C98.6234 25.3089 98.8223 25.5665 99.0756 25.7596C99.3369 25.954 99.6256 26.0757 99.9419 26.1248C100.353 26.1887 100.712 26.1472 101.018 26.0004C101.324 25.8536 101.565 25.628 101.742 25.3235L102.726 25.4763C102.484 25.9973 102.109 26.4046 101.602 26.6982C101.104 26.9853 100.507 27.0748 99.8112 26.9668ZM100.638 21.6425C100.163 21.5689 99.7178 21.6495 99.3008 21.8843C98.893 22.1124 98.6185 22.4989 98.4772 23.0437L102.177 23.618C102.235 23.0847 102.118 22.6415 101.825 22.2883C101.531 21.9351 101.136 21.7199 100.638 21.6425Z" fill="#121213"/>
<path d="M106.88 28.468C106.193 28.2818 105.669 27.9532 105.307 27.4823C104.946 27.0113 104.807 26.4681 104.891 25.8527L105.887 26.1226C105.867 26.4405 105.955 26.7459 106.149 27.0389C106.353 27.3262 106.675 27.5295 107.115 27.6488C107.524 27.7597 107.848 27.7564 108.087 27.6388C108.328 27.5135 108.482 27.3312 108.546 27.0918C108.641 26.7444 108.576 26.4782 108.352 26.2933C108.137 26.1105 107.814 25.9111 107.383 25.695C107.091 25.5495 106.806 25.377 106.529 25.1775C106.251 24.978 106.037 24.7457 105.885 24.4807C105.735 24.208 105.707 23.898 105.801 23.5505C105.937 23.0486 106.233 22.6896 106.69 22.4734C107.156 22.2517 107.71 22.2276 108.35 22.4013C108.96 22.5666 109.417 22.856 109.719 23.2695C110.031 23.6773 110.142 24.1715 110.051 24.7519L109.089 24.4914C109.13 24.1875 109.065 23.9252 108.892 23.7044C108.73 23.4781 108.471 23.3167 108.116 23.2205C107.769 23.1263 107.478 23.1264 107.246 23.2208C107.021 23.3173 106.876 23.4853 106.811 23.7246C106.748 23.9563 106.818 24.1702 107.022 24.3663C107.234 24.5645 107.535 24.7665 107.927 24.9721C108.262 25.1456 108.571 25.3331 108.856 25.5347C109.151 25.7307 109.369 25.9679 109.509 26.2462C109.659 26.5189 109.677 26.8637 109.564 27.2807C109.432 27.8001 109.119 28.1753 108.625 28.4062C108.142 28.6316 107.56 28.6521 106.88 28.468Z" fill="#121213"/>
<path d="M112.649 30.3414C111.983 30.0888 111.494 29.7104 111.18 29.2064C110.867 28.7023 110.782 28.1481 110.925 27.5438L111.89 27.91C111.839 28.2244 111.896 28.5369 112.061 28.8475C112.236 29.1534 112.536 29.3873 112.963 29.5491C113.359 29.6995 113.682 29.728 113.931 29.6344C114.184 29.5333 114.354 29.3668 114.442 29.135C114.569 28.7984 114.531 28.5272 114.327 28.3213C114.13 28.1183 113.828 27.8882 113.421 27.6309C113.144 27.4576 112.878 27.258 112.621 27.0323C112.365 26.8065 112.174 26.5544 112.048 26.2758C111.926 25.9897 111.929 25.6784 112.056 25.3418C112.241 24.8557 112.571 24.5274 113.046 24.357C113.532 24.1819 114.085 24.2122 114.706 24.4478C115.297 24.672 115.723 25.0047 115.983 25.4458C116.254 25.8823 116.315 26.3849 116.168 26.9536L115.237 26.6002C115.307 26.3018 115.268 26.0343 115.118 25.7977C114.978 25.5565 114.737 25.3707 114.392 25.2401C114.056 25.1124 113.767 25.0841 113.526 25.1552C113.293 25.2292 113.132 25.3821 113.044 25.614C112.959 25.8384 113.008 26.0581 113.192 26.2733C113.383 26.4913 113.663 26.7218 114.033 26.9648C114.349 27.1702 114.639 27.3872 114.903 27.6157C115.177 27.8397 115.37 28.097 115.483 28.3877C115.605 28.6737 115.59 29.0187 115.436 29.4226C115.254 29.9266 114.905 30.2693 114.392 30.4508C113.888 30.6277 113.307 30.5912 112.649 30.3414Z" fill="#121213"/>
<path d="M119.585 33.2264L123.778 25.9473L124.651 26.4504L120.86 33.0327L124.25 34.9851L123.849 35.6819L119.585 33.2264Z" fill="#121213"/>
<path d="M130.569 31.4436C130.405 31.3295 130.303 31.1811 130.265 30.9984C130.237 30.8137 130.28 30.6392 130.394 30.475C130.504 30.3172 130.648 30.2223 130.826 30.1902C131.011 30.1626 131.185 30.2059 131.349 30.32C131.507 30.4295 131.605 30.5756 131.644 30.7583C131.683 30.941 131.647 31.1112 131.538 31.2689C131.424 31.4332 131.272 31.5324 131.083 31.5665C130.898 31.5941 130.727 31.5531 130.569 31.4436ZM126.007 37.1293L129.402 32.2404L130.23 32.8153L126.835 37.7042L126.007 37.1293Z" fill="#121213"/>
<path d="M128.834 39.1631L131.983 35.151L131.275 34.5954L131.801 33.9252L132.509 34.4808L133.146 33.6689C133.501 33.2158 133.874 32.9743 134.263 32.9444C134.653 32.9145 135.065 33.07 135.499 33.4107L135.971 33.7811L135.438 34.4608L135.088 34.1867C134.849 33.9991 134.64 33.9161 134.46 33.9377C134.285 33.9531 134.107 34.0772 133.924 34.3101L133.302 35.1031L134.453 36.0069L133.927 36.6771L132.776 35.7733L129.627 39.7854L128.834 39.1631Z" fill="#121213"/>
<path d="M133.834 43.6037C133.421 43.2139 133.143 42.7749 132.998 42.2867C132.859 41.7928 132.856 41.2892 132.988 40.776C133.126 40.2683 133.412 39.7846 133.846 39.3249C134.274 38.8711 134.738 38.5605 135.236 38.3932C135.741 38.2201 136.241 38.1914 136.736 38.3071C137.243 38.4225 137.709 38.6806 138.134 39.0814C138.553 39.4767 138.823 39.9131 138.945 40.3906C139.077 40.8678 139.08 41.3374 138.952 41.7995C138.824 42.2617 138.592 42.6702 138.257 43.0252C138.197 43.0892 138.134 43.1504 138.067 43.2089C138.007 43.2729 137.938 43.3457 137.861 43.4271L134.414 40.1743C134.118 40.5224 133.933 40.8702 133.858 41.2176C133.795 41.5646 133.813 41.8895 133.912 42.1922C134.017 42.5004 134.186 42.7643 134.419 42.9839C134.722 43.2694 135.041 43.4384 135.376 43.4909C135.712 43.5434 136.038 43.4943 136.357 43.3436L137.081 44.0271C136.586 44.3188 136.046 44.442 135.462 44.3967C134.889 44.3511 134.346 44.0868 133.834 43.6037ZM137.532 39.6846C137.183 39.3552 136.77 39.1692 136.293 39.1264C135.828 39.0834 135.383 39.2463 134.958 39.6152L137.681 42.1845C138.031 41.7782 138.186 41.3464 138.144 40.8892C138.103 40.4321 137.899 40.0305 137.532 39.6846Z" fill="#121213"/>
<path d="M138.519 48.5108C138.055 47.9704 137.806 47.4039 137.772 46.8113C137.738 46.2186 137.929 45.6914 138.344 45.2296L139.016 46.0128C138.821 46.2646 138.721 46.5661 138.717 46.9176C138.724 47.2699 138.876 47.619 139.173 47.9651C139.449 48.2869 139.719 48.4664 139.983 48.5036C140.253 48.5356 140.482 48.4709 140.67 48.3094C140.943 48.075 141.04 47.8185 140.959 47.54C140.883 47.2676 140.728 46.921 140.494 46.5003C140.334 46.2157 140.195 45.913 140.078 45.592C139.961 45.2709 139.914 44.9582 139.937 44.6536C139.966 44.3438 140.118 44.0717 140.391 43.8373C140.786 43.4987 141.232 43.3683 141.731 43.4462C142.242 43.5249 142.713 43.8163 143.145 44.3202C143.557 44.7999 143.771 45.2957 143.789 45.8077C143.818 46.3205 143.631 46.7913 143.23 47.2201L142.581 46.4642C142.786 46.2359 142.879 45.9821 142.861 45.7027C142.854 45.4241 142.73 45.1452 142.491 44.8659C142.256 44.5927 142.016 44.4296 141.771 44.3768C141.53 44.3301 141.316 44.3874 141.128 44.5489C140.946 44.7052 140.884 44.9217 140.942 45.1985C141.006 45.4813 141.141 45.818 141.35 46.2083C141.529 46.5397 141.68 46.869 141.802 47.196C141.936 47.524 141.982 47.8424 141.942 48.1513C141.912 48.4611 141.734 48.7567 141.406 49.038C141.004 49.393 140.534 49.5273 139.996 49.4408C139.47 49.3551 138.977 49.0451 138.519 48.5108Z" fill="#121213"/>
<path d="M142.572 53.5022C142.256 53.0588 142.116 52.6334 142.15 52.2262C142.185 51.8189 142.482 51.416 143.043 51.0174L145.713 49.1195L145.116 48.2783L145.81 47.7847L146.408 48.6259L147.648 47.9061L148.156 48.6201L146.992 49.4474L148.007 50.8755L147.312 51.3691L146.297 49.9411L143.627 51.839C143.321 52.0568 143.156 52.2671 143.133 52.4698C143.117 52.6678 143.22 52.9234 143.443 53.2363L143.804 53.745L143.1 54.2455L142.572 53.5022Z" fill="#121213"/>
<path d="M142.474 58.1203L146 57.8203L145.828 57.5174L149.342 52.8116L149.88 53.7619L146.819 57.7565L151.878 57.2915L152.393 58.2L142.994 59.0392L142.474 58.1203Z" fill="#121213"/>
<path d="M147.84 62.5465L155.68 58.9157L156.103 59.8304L148.263 63.4611L147.84 62.5465Z" fill="#121213"/>
<path d="M150.095 68.3155C149.901 67.7815 149.85 67.2641 149.94 66.7632C150.039 66.2595 150.262 65.8083 150.611 65.4096C150.963 65.0183 151.436 64.715 152.03 64.4996C152.617 64.287 153.171 64.2182 153.691 64.2933C154.219 64.3656 154.679 64.565 155.07 64.8915C155.47 65.2227 155.77 65.6628 155.969 66.2119C156.166 66.7534 156.21 67.2647 156.104 67.7458C156.008 68.2316 155.799 68.6521 155.476 69.0072C155.154 69.3622 154.763 69.6229 154.305 69.7892C154.222 69.8192 154.138 69.8454 154.052 69.8679C153.97 69.8978 153.876 69.9319 153.77 69.9701L152.155 65.5137C151.735 65.6917 151.413 65.9189 151.19 66.1955C150.977 66.4769 150.847 66.7751 150.799 67.0901C150.754 67.4127 150.787 67.7244 150.896 68.0252C151.037 68.4163 151.246 68.7108 151.522 68.9086C151.798 69.1064 152.112 69.2096 152.464 69.2182L152.803 70.1546C152.23 70.1923 151.692 70.0594 151.191 69.7561C150.7 69.4576 150.334 68.9774 150.095 68.3155ZM155.16 66.4796C154.997 66.0284 154.712 65.6764 154.305 65.4238C153.909 65.1759 153.438 65.1211 152.893 65.2592L154.168 68.7792C154.664 68.574 154.996 68.2579 155.165 67.8309C155.333 67.4039 155.332 66.9535 155.16 66.4796Z" fill="#121213"/>
<path d="M155.833 79.9359C155.795 79.6827 155.824 79.4359 155.918 79.1956C156.013 78.9633 156.158 78.768 156.353 78.6099C156.556 78.4506 156.788 78.3517 157.049 78.3132C157.318 78.2735 157.569 78.3013 157.801 78.3964C158.042 78.4904 158.241 78.6349 158.399 78.8299C158.558 79.0328 158.656 79.2609 158.694 79.5142C158.733 79.7833 158.706 80.034 158.611 80.2664C158.517 80.5066 158.368 80.7064 158.165 80.8657C157.97 81.0239 157.738 81.1228 157.469 81.1624C157.208 81.2009 156.957 81.1732 156.717 81.0792C156.485 80.9841 156.289 80.835 156.129 80.6321C155.971 80.4371 155.872 80.205 155.833 79.9359Z" fill="#121213"/>
<path d="M111.2 90.4227C111.058 90.1724 110.867 89.9529 110.639 89.7771C110.411 89.6013 110.151 89.4728 109.872 89.399C108.263 88.9902 106.591 88.884 104.943 89.0859C105.971 85.0621 105.389 81.8934 104.802 80.0859C104.63 79.5455 104.263 79.0888 103.772 78.8049C103.281 78.521 102.702 78.4302 102.147 78.5502C100.047 79.0234 98.0673 79.9282 96.3349 81.2071C95.1911 78.5503 93.3911 76.2277 91.1037 74.4571C90.7147 74.1606 90.2391 74 89.7499 74C89.2608 74 88.7852 74.1606 88.3962 74.4571C86.1088 76.2277 84.3087 78.5503 83.1649 81.2071C81.4323 79.9285 79.453 79.0238 77.3524 78.5502C76.7982 78.4302 76.219 78.521 75.7281 78.8049C75.2372 79.0888 74.8697 79.5455 74.6974 80.0859C74.1106 81.9009 73.5293 85.0696 74.5568 89.0859C72.9103 88.8847 71.2408 88.9909 69.6331 89.399C69.3548 89.4728 69.0941 89.6013 68.8661 89.7771C68.6382 89.9529 68.4476 90.1724 68.3056 90.4227C68.1549 90.6814 68.0575 90.9676 68.0188 91.2644C67.9802 91.5613 68.0012 91.8629 68.0806 92.1515C68.6881 94.4015 70.5556 98.6784 76.2406 102.074C81.9256 105.47 87.0274 105.488 89.7556 105.488C92.4837 105.488 97.5574 105.488 103.269 102.074C108.98 98.6596 110.821 94.3996 111.429 92.1515C111.508 91.8626 111.528 91.5609 111.489 91.2641C111.449 90.9672 111.351 90.6812 111.2 90.4227ZM102.468 80.009C102.66 79.9691 102.861 80.0026 103.03 80.1029C103.199 80.2031 103.324 80.3629 103.381 80.5509C104.131 82.8946 104.881 87.7415 101.362 93.8634C99.4024 97.274 96.6537 99.9009 94.2162 101.633C96.1306 99.1134 98.0056 95.2209 98.0056 89.5865C98.0254 87.2288 97.6528 84.8843 96.9031 82.649C98.5411 81.37 100.441 80.4686 102.468 80.009ZM76.1299 80.5509C76.1886 80.3644 76.3147 80.2065 76.4835 80.1081C76.6524 80.0096 76.8519 79.9776 77.0431 80.0184C79.069 80.4752 80.9692 81.3734 82.6081 82.649C81.8583 84.8843 81.4857 87.2288 81.5056 89.5865C81.5056 95.2209 83.3806 99.1152 85.2949 101.63C82.8574 99.8971 80.1087 97.2702 78.1493 93.8596C74.6281 87.7321 75.3724 82.8852 76.1299 80.5509ZM77.0149 100.801C71.7837 97.6752 70.0774 93.8034 69.5337 91.7727C69.506 91.6748 69.4986 91.5723 69.5118 91.4714C69.525 91.3705 69.5586 91.2734 69.6106 91.1859C69.6543 91.1067 69.7135 91.0372 69.7847 90.9815C69.8559 90.9258 69.9376 90.885 70.0249 90.8615C71.6642 90.4501 73.3714 90.3863 75.0368 90.674C75.5161 92.0402 76.1225 93.3585 76.8481 94.6115C79.3381 98.9427 82.9718 102.05 85.8987 103.82C82.7525 103.466 79.7211 102.431 77.0149 100.788V100.801ZM89.7649 103.865C88.5428 103.014 87.4621 101.976 86.5624 100.79C84.1999 97.7221 83.0056 93.9571 83.0056 89.5865C83.0056 81.2896 87.4099 77.0709 89.3037 75.644C89.4338 75.5457 89.5925 75.4926 89.7556 75.4926C89.9186 75.4926 90.0773 75.5457 90.2074 75.644C92.1012 77.0709 96.5056 81.2896 96.5056 89.5865C96.5056 93.9571 95.3112 97.7221 92.9581 100.776C92.0583 101.963 90.9776 103.001 89.7556 103.851L89.7649 103.865ZM109.987 91.7727C109.439 93.8034 107.737 97.6752 102.506 100.801C99.7991 102.443 96.7677 103.476 93.6218 103.829C96.5487 102.059 100.184 98.954 102.672 94.6209C103.398 93.3679 104.004 92.0496 104.484 90.6834C106.149 90.3947 107.856 90.4586 109.496 90.8709C109.583 90.8943 109.665 90.9352 109.736 90.9909C109.807 91.0466 109.866 91.1161 109.91 91.1952C110.006 91.3672 110.03 91.5699 109.977 91.7596L109.987 91.7727Z" fill="black"/>
</svg>
