<svg width="44" height="32" viewBox="0 0 44 32" fill="none" xmlns="http://www.w3.org/2000/svg">
<path d="M43.1999 16.4227C43.0579 16.1724 42.8673 15.9529 42.6394 15.7771C42.4114 15.6013 42.1507 15.4728 41.8724 15.399C40.2629 14.9902 38.5914 14.884 36.9431 15.0859C37.9706 11.0621 37.3893 7.89336 36.8024 6.08587C36.6301 5.54555 36.2627 5.08884 35.7717 4.80489C35.2808 4.52095 34.7017 4.43016 34.1474 4.55024C32.0467 5.02344 30.0673 5.92821 28.3349 7.20712C27.1911 4.55031 25.3911 2.22766 23.1037 0.457116C22.7147 0.160596 22.2391 0 21.7499 0C21.2608 0 20.7852 0.160596 20.3962 0.457116C18.1088 2.22766 16.3087 4.55031 15.1649 7.20712C13.4323 5.92854 11.453 5.0238 9.35243 4.55024C8.79817 4.43016 8.21904 4.52095 7.72812 4.80489C7.2372 5.08884 6.86972 5.54555 6.69743 6.08587C6.11055 7.90087 5.5293 11.0696 6.5568 15.0859C4.91032 14.8847 3.2408 14.9909 1.63305 15.399C1.35481 15.4728 1.09408 15.6013 0.86613 15.7771C0.638183 15.9529 0.447604 16.1724 0.305554 16.4227C0.154935 16.6814 0.0574534 16.9676 0.0188183 17.2644C-0.0198169 17.5613 0.00117144 17.8629 0.0805538 18.1515C0.688054 20.4015 2.55555 24.6784 8.24055 28.074C13.9256 31.4696 19.0274 31.4884 21.7556 31.4884C24.4837 31.4884 29.5574 31.4884 35.2687 28.074C40.9799 24.6596 42.8212 20.3996 43.4287 18.1515C43.5075 17.8626 43.5279 17.5609 43.4886 17.2641C43.4493 16.9672 43.3512 16.6812 43.1999 16.4227ZM34.4681 6.00899C34.6604 5.96914 34.8607 6.00263 35.0297 6.10289C35.1986 6.20315 35.324 6.36292 35.3812 6.55087C36.1312 8.89462 36.8812 13.7415 33.3618 19.8634C31.4024 23.274 28.6537 25.9009 26.2162 27.6334C28.1306 25.1134 30.0056 21.2209 30.0056 15.5865C30.0254 13.2288 29.6528 10.8843 28.9031 8.64899C30.5411 7.37005 32.4413 6.46859 34.4681 6.00899ZM8.12993 6.55087C8.18861 6.36442 8.31469 6.20655 8.48354 6.10808C8.65239 6.00961 8.85188 5.97763 9.04305 6.01837C11.069 6.47516 12.9692 7.37339 14.6081 8.64899C13.8583 10.8843 13.4857 13.2288 13.5056 15.5865C13.5056 21.2209 15.3806 25.1152 17.2949 27.6296C14.8574 25.8971 12.1087 23.2702 10.1493 19.8596C6.62805 13.7321 7.37243 8.88524 8.12993 6.55087ZM9.01493 26.8009C3.78368 23.6752 2.07743 19.8034 1.53368 17.7727C1.50601 17.6748 1.49856 17.5723 1.51177 17.4714C1.52499 17.3705 1.5586 17.2734 1.61055 17.1859C1.6543 17.1067 1.71354 17.0372 1.78473 16.9815C1.85592 16.9258 1.93761 16.885 2.02493 16.8615C3.66419 16.4501 5.37139 16.3863 7.0368 16.674C7.51611 18.0402 8.12251 19.3585 8.84805 20.6115C11.3381 24.9427 14.9718 28.0496 17.8987 29.8196C14.7525 29.4657 11.7211 28.4311 9.01493 26.7877V26.8009ZM21.7649 29.8646C20.5428 29.0138 19.4621 27.9762 18.5624 26.7896C16.1999 23.7221 15.0056 19.9571 15.0056 15.5865C15.0056 7.28962 19.4099 3.07087 21.3037 1.64399C21.4338 1.54574 21.5925 1.49258 21.7556 1.49258C21.9186 1.49258 22.0773 1.54574 22.2074 1.64399C24.1012 3.07087 28.5056 7.28962 28.5056 15.5865C28.5056 19.9571 27.3112 23.7221 24.9581 26.7765C24.0583 27.963 22.9776 29.0007 21.7556 29.8515L21.7649 29.8646ZM41.9868 17.7727C41.4393 19.8034 39.7368 23.6752 34.5056 26.8009C31.7991 28.4429 28.7677 29.4762 25.6218 29.829C28.5487 28.059 32.1843 24.954 34.6724 20.6209C35.398 19.3679 36.0044 18.0496 36.4837 16.6834C38.149 16.3947 39.8564 16.4586 41.4956 16.8709C41.5829 16.8943 41.6646 16.9352 41.7358 16.9909C41.8069 17.0466 41.8662 17.1161 41.9099 17.1952C42.0056 17.3672 42.0299 17.5699 41.9774 17.7596L41.9868 17.7727Z" fill="black"/>
</svg>
